<?xml version="1.0" encoding="iso-8859-1"?>
<!-- Uploaded to: SVG Repo, www.svgrepo.com, Generator: SVG Repo Mixer Tools -->
<svg height="800px" width="800px" version="1.1" id="Layer_1" xmlns="http://www.w3.org/2000/svg" xmlns:xlink="http://www.w3.org/1999/xlink" 
	 viewBox="0 0 512 512" xml:space="preserve">
<path style="fill:#E6E6E6;" d="M161.843,131.062c16.724-9.061,34.915-15.776,54.113-19.717c12.933-2.658,26.328-4.057,40.047-4.057
	c13.453,0,26.605,1.341,39.307,3.906c90.53,18.226,158.708,98.216,158.708,194.121c0,109.358-88.658,198.016-198.016,198.016
	c-109.369,0-198.027-88.658-198.027-198.016c0-55.153,22.537-105.024,58.909-140.933
	C130.164,151.264,145.293,140.019,161.843,131.062z"/>
<polygon style="fill:#70E5CF;" points="324.227,8.667 324.227,64.236 295.31,64.236 215.956,64.236 187.883,64.236 187.883,8.667 
	"/>
<polygon style="fill:#35D8B9;" points="217.898,8.667 217.898,64.236 211.532,64.236 194.062,64.236 187.883,64.236 187.883,8.667 
	"/>
<path style="fill:#CCCCCC;" d="M295.31,64.236v46.958c-12.702-2.566-25.854-3.906-39.307-3.906c-13.719,0-27.114,1.398-40.047,4.057
	V64.236C215.956,64.236,295.31,64.236,295.31,64.236z"/>
<path style="fill:#E6E6E6;" d="M272.184,64.236v46.958c-5.298-2.566-10.784-3.906-16.397-3.906c-5.722,0-11.31,1.398-16.704,4.057
	V64.236C239.083,64.236,272.184,64.236,272.184,64.236z"/>
<path style="fill:#F95428;" d="M116.492,76.695l45.352,54.367c-16.55,8.957-31.679,20.203-44.959,33.32L73.59,112.489
	L116.492,76.695z"/>
<path style="fill:#E54728;" d="M100.361,89.882l45.352,54.367c-16.55,8.957-1.491-6.345-14.771,6.773L87.647,99.128L100.361,89.882z
	"/>
<path style="fill:#F95428;" d="M412.25,305.315H256.003V149.057c26.952,0,52.321,6.831,74.454,18.85
	C379.172,194.362,412.25,245.978,412.25,305.315z"/>
<path style="fill:#70E5CF;" d="M412.25,305.315c0,86.289-69.958,156.247-156.247,156.247c-25.427,0-49.443-6.068-70.651-16.839
	c-50.795-25.796-85.607-78.545-85.607-139.407c0-86.3,69.958-156.258,156.258-156.258v156.258H412.25z"/>
<path style="fill:#35D8B9;" d="M213.09,444.722c-50.795-25.796-85.607-78.545-85.607-139.407
	c0-76.834,55.452-140.713,128.52-153.802v-2.456c-86.3,0-156.258,69.958-156.258,156.258c0,60.862,34.811,113.611,85.607,139.407
	c21.208,10.772,45.225,16.839,70.651,16.839c4.655,0,9.26-0.216,13.812-0.615C249.545,459.159,230.383,453.506,213.09,444.722z"/>
<g>
	<path style="fill:#333333;" d="M303.978,104.256V72.904h20.247c4.788,0,8.668-3.881,8.668-8.668V8.668
		c0-4.787-3.88-8.668-8.668-8.668h-136.34c-4.788,0-8.668,3.881-8.668,8.668v55.568c0,4.787,3.88,8.668,8.668,8.668h19.399v31.533
		c-15.114,3.666-29.582,8.995-43.202,15.786l-40.937-49.075c-3.067-3.678-8.532-4.17-12.208-1.104l-42.896,35.782
		c-1.765,1.472-2.872,3.586-3.08,5.876c-0.207,2.29,0.505,4.568,1.977,6.332l38.358,45.983
		c-34.698,36.987-55.985,86.697-55.985,141.292C49.311,419.279,142.031,512,255.999,512s206.688-92.721,206.688-206.688
		C462.688,207.856,394.886,125.949,303.978,104.256z M196.553,55.568V17.336h119.002v38.231H196.553z M286.642,72.904v27.994
		c-10.002-1.493-20.232-2.275-30.643-2.275c-10.665,0-21.143,0.813-31.378,2.379V72.905h62.02V72.904z M85.802,113.587
		l29.584-24.678l33.244,39.85c-11.027,6.731-21.373,14.468-30.919,23.078L85.802,113.587z M255.999,494.664
		c-104.409,0-189.352-84.943-189.352-189.352s84.943-189.352,189.352-189.352s189.352,84.943,189.352,189.352
		S360.408,494.664,255.999,494.664z"/>
	<path style="fill:#333333;" d="M255.999,140.393c-90.937,0-164.918,73.982-164.918,164.918s73.982,164.917,164.918,164.917
		s164.917-73.982,164.917-164.917C420.917,214.375,346.935,140.393,255.999,140.393z M255.999,452.892
		c-81.377,0-147.582-66.205-147.582-147.581c0-78.467,61.557-142.817,138.914-147.321v147.321c0,4.787,3.88,8.668,8.668,8.668
		h147.32C398.816,391.337,334.466,452.892,255.999,452.892z M264.668,296.643V157.991c74.487,4.336,134.315,64.164,138.651,138.653
		L264.668,296.643L264.668,296.643z"/>
	<circle style="fill:#333333;" cx="364.409" cy="367.9" r="8.668"/>
	<circle style="fill:#333333;" cx="318.584" cy="413.714" r="8.668"/>
	<circle style="fill:#333333;" cx="255.999" cy="430.485" r="8.668"/>
	<circle style="fill:#333333;" cx="193.415" cy="413.714" r="8.668"/>
	<circle style="fill:#333333;" cx="147.59" cy="367.9" r="8.668"/>
	<circle style="fill:#333333;" cx="130.819" cy="305.316" r="8.668"/>
	<circle style="fill:#333333;" cx="147.59" cy="242.72" r="8.668"/>
	<circle style="fill:#333333;" cx="193.415" cy="196.906" r="8.668"/>
	<circle style="fill:#333333;" cx="318.584" cy="196.906" r="8.668"/>
	<circle style="fill:#333333;" cx="364.409" cy="242.72" r="8.668"/>
</g>
</svg>